<?xml version="1.0" standalone="no"?>
<!DOCTYPE svg PUBLIC "-//W3C//DTD SVG 20010904//EN"
 "http://www.w3.org/TR/2001/REC-SVG-20010904/DTD/svg10.dtd">
<svg version="1.0" xmlns="http://www.w3.org/2000/svg"
 width="512.000000pt" height="512.000000pt" viewBox="0 0 512.000000 512.000000"
 preserveAspectRatio="xMidYMid meet">

<g transform="translate(0.000000,512.000000) scale(0.100000,-0.100000)"
fill="#000000" stroke="none">
<path d="M2480 5111 c-54 -18 -108 -52 -140 -87 -37 -43 -69 -108 -70 -141 0
-13 -3 -23 -7 -23 -5 0 -51 -7 -103 -15 -315 -51 -649 -181 -918 -354 -116
-76 -136 -117 -82 -166 32 -29 71 -22 136 22 254 172 619 312 927 356 l37 6 0
-147 0 -147 -107 -22 c-374 -77 -726 -267 -1002 -542 -607 -605 -760 -1534
-379 -2295 128 -256 292 -466 497 -637 758 -635 1824 -635 2583 0 478 401 751
1050 698 1666 -42 492 -240 925 -580 1265 -274 274 -630 466 -1002 543 l-108
22 0 147 0 147 38 -6 c20 -3 89 -16 152 -30 820 -178 1477 -795 1709 -1603
177 -617 91 -1259 -244 -1821 -60 -101 -64 -127 -23 -162 37 -31 77 -19 118
36 79 104 199 354 263 547 88 262 121 478 121 775 0 244 -16 371 -74 600 -213
837 -857 1499 -1694 1740 -82 23 -231 55 -333 70 -35 6 -43 11 -43 28 -1 65
-79 168 -156 206 -51 26 -167 38 -214 22z m150 -159 c19 -9 43 -33 55 -52 19
-34 20 -50 20 -525 0 -456 -1 -493 -18 -518 -58 -89 -196 -89 -254 0 -17 25
-18 62 -18 518 0 475 1 491 20 525 24 41 76 70 125 70 19 0 51 -8 70 -18z
m-368 -889 c4 -223 13 -261 86 -336 64 -67 103 -82 212 -82 109 0 148 15 212
82 73 75 82 113 86 336 3 141 7 197 15 197 27 0 219 -51 301 -80 864 -306
1377 -1207 1196 -2103 -117 -575 -496 -1058 -1029 -1310 -695 -328 -1531 -183
-2079 362 -444 441 -634 1065 -511 1675 130 645 601 1179 1221 1384 105 35
235 68 275 71 8 1 12 -55 15 -196z"/>
<path d="M1439 3381 l-24 -19 0 -302 0 -302 24 -19 c20 -17 40 -19 163 -19
136 0 139 1 165 26 20 20 24 31 19 57 -11 54 -27 62 -132 65 l-95 4 3 56 3 57
88 5 c96 5 117 18 117 68 0 58 -42 82 -146 82 l-64 0 0 55 0 55 80 0 c52 0 91
5 110 15 49 25 50 98 0 125 -10 5 -79 10 -153 10 -118 0 -138 -2 -158 -19z"/>
<path d="M2175 3378 c-19 -17 -53 -95 -130 -297 -58 -151 -105 -286 -105 -302
0 -18 9 -35 26 -48 53 -42 100 -19 129 62 l18 47 112 0 112 0 18 -47 c29 -81
76 -104 129 -62 17 13 26 30 26 48 0 24 -167 482 -206 567 -26 55 -85 69 -129
32z m80 -321 l25 -67 -55 0 -54 0 24 65 c14 36 25 68 25 72 0 15 11 -7 35 -70z"/>
<path d="M2765 3381 c-107 -50 -147 -169 -90 -267 26 -45 30 -47 194 -117 41
-18 80 -42 88 -54 14 -20 13 -24 -11 -48 -44 -44 -139 -31 -203 28 -48 44
-123 13 -123 -51 0 -76 129 -152 256 -152 76 0 126 18 172 63 47 45 65 84 65
142 0 99 -53 155 -203 217 -107 44 -126 62 -100 93 20 24 98 19 152 -10 59
-31 82 -31 113 0 34 33 32 70 -5 105 -70 65 -221 90 -305 51z"/>
<path d="M3235 3380 c-34 -38 -23 -71 68 -210 l87 -132 0 -142 c0 -161 6 -176
72 -176 64 0 72 21 76 187 l4 145 84 131 c68 105 84 137 79 157 -13 54 -86 80
-122 42 -10 -9 -40 -52 -68 -95 -27 -42 -52 -77 -55 -77 -3 0 -30 39 -60 86
-30 47 -63 90 -72 95 -29 15 -74 10 -93 -11z"/>
<path d="M1013 2418 c-28 -14 -45 -61 -33 -93 12 -32 39 -45 94 -45 l46 0 0
-245 0 -246 25 -24 c30 -30 64 -32 99 -4 l26 20 0 250 0 249 53 0 c43 0 58 5
75 23 29 31 28 72 -3 102 -24 25 -27 25 -192 24 -97 0 -177 -5 -190 -11z"/>
<path d="M1709 2417 c-25 -7 -66 -25 -91 -40 -147 -86 -206 -278 -134 -434 33
-73 103 -143 173 -175 68 -30 208 -31 275 -1 216 98 273 375 113 552 -77 85
-227 129 -336 98z m191 -171 c128 -84 114 -274 -25 -337 -98 -45 -210 -3 -256
96 -34 74 -19 155 41 215 22 22 54 44 72 49 50 16 126 5 168 -23z"/>
<path d="M2463 2418 c-40 -19 -45 -53 -41 -280 3 -196 5 -216 25 -254 43 -80
123 -133 213 -141 80 -8 151 18 212 75 72 68 80 103 76 361 -3 231 -4 235 -65
247 -26 5 -37 1 -57 -19 l-26 -26 0 -208 c0 -173 -3 -212 -16 -231 -20 -29
-65 -52 -101 -52 -38 0 -91 34 -103 66 -6 14 -10 117 -10 229 l0 204 -26 20
c-29 23 -48 25 -81 9z"/>
<path d="M3209 2407 c-93 -50 -132 -160 -87 -246 29 -56 51 -72 167 -120 133
-55 154 -78 111 -121 -30 -30 -116 -28 -161 5 -82 60 -135 62 -159 5 -16 -39
-6 -63 46 -109 87 -76 223 -95 325 -43 79 40 114 94 114 176 0 51 -5 70 -27
104 -35 52 -54 64 -181 117 -104 43 -121 59 -92 89 25 24 94 20 149 -9 58 -31
86 -32 114 -2 29 31 29 77 0 105 -77 71 -232 95 -319 49z"/>
<path d="M3775 2408 c-44 -24 -45 -29 -45 -324 0 -189 4 -291 11 -308 18 -40
55 -48 193 -44 113 3 128 5 147 25 27 27 29 75 4 103 -16 17 -31 20 -112 20
l-93 0 0 60 0 60 80 0 c73 0 83 3 105 25 14 13 25 36 25 50 0 14 -11 37 -25
50 -22 22 -32 25 -105 25 l-80 0 0 60 0 60 89 0 c71 0 93 4 112 18 33 27 30
78 -5 109 -25 22 -35 23 -154 23 -72 0 -136 -5 -147 -12z"/>
<path d="M1570 1377 c-29 -15 -45 -54 -37 -89 16 -61 330 -244 527 -306 464
-148 952 -90 1355 160 133 83 175 122 175 163 0 38 -37 75 -74 75 -11 0 -59
-27 -105 -60 -164 -118 -371 -205 -586 -247 -122 -24 -394 -24 -522 0 -224 41
-409 124 -642 286 -49 35 -56 36 -91 18z"/>
<path d="M833 4158 c-314 -305 -566 -768 -656 -1203 -41 -197 -51 -299 -51
-515 0 -216 10 -318 51 -515 169 -812 779 -1507 1563 -1783 664 -233 1374
-175 1995 161 203 110 385 249 563 429 95 97 112 120 112 146 0 41 -31 72 -72
72 -27 0 -51 -19 -167 -133 -75 -73 -179 -164 -231 -203 -571 -425 -1266 -563
-1954 -390 -372 94 -717 287 -1004 560 -376 360 -610 812 -688 1331 -25 164
-25 485 -1 645 76 494 285 919 628 1275 47 50 89 100 93 111 13 43 -31 94 -81
94 -8 0 -54 -37 -100 -82z"/>
</g>
</svg>
