<?xml version="1.0" standalone="no"?>
<!DOCTYPE svg PUBLIC "-//W3C//DTD SVG 20010904//EN"
 "http://www.w3.org/TR/2001/REC-SVG-20010904/DTD/svg10.dtd">
<svg version="1.0" xmlns="http://www.w3.org/2000/svg"
 width="512.000000pt" height="512.000000pt" viewBox="0 0 512.000000 512.000000"
 preserveAspectRatio="xMidYMid meet">

<g transform="translate(0.000000,512.000000) scale(0.100000,-0.100000)"
fill="#000000" stroke="none">
<path d="M2870 4070 c-215 -26 -529 -133 -560 -189 -17 -33 -11 -71 15 -96 30
-31 63 -31 123 -1 113 57 298 109 440 124 l72 8 0 -93 c0 -86 2 -96 25 -118
15 -16 36 -25 55 -25 19 0 40 9 55 25 23 22 25 32 25 118 l0 93 73 -8 c147
-15 325 -67 452 -130 76 -39 209 -125 258 -168 l38 -33 -66 -67 c-75 -78 -84
-112 -40 -155 43 -44 77 -35 155 41 l68 65 38 -46 c145 -172 258 -435 287
-671 l13 -99 -99 -5 c-89 -4 -101 -7 -118 -29 -26 -32 -24 -77 6 -106 22 -23
32 -25 118 -25 l93 0 -8 -72 c-15 -148 -67 -326 -130 -453 -39 -76 -125 -209
-168 -258 l-33 -38 -67 66 c-78 75 -112 84 -155 40 -44 -43 -35 -77 41 -155
l65 -68 -60 -49 c-178 -144 -453 -257 -683 -281 l-78 -8 0 93 c0 86 -2 96 -25
118 -32 33 -78 33 -110 0 -23 -22 -25 -32 -25 -118 l0 -95 -47 5 c-137 12
-314 60 -442 119 -88 40 -114 42 -146 9 -30 -29 -33 -73 -7 -104 21 -26 174
-93 290 -127 154 -44 255 -58 432 -58 247 0 429 41 650 145 171 81 303 174
429 300 589 592 582 1563 -15 2152 -217 215 -495 357 -804 412 -107 19 -331
27 -430 15z"/>
<path d="M1545 3575 c-16 -15 -25 -36 -25 -55 0 -19 9 -40 25 -55 l24 -25 461
0 461 0 24 25 c16 15 25 36 25 55 0 19 -9 40 -25 55 l-24 25 -461 0 -461 0
-24 -25z"/>
<path d="M3414 3048 l-213 -211 -52 16 c-156 51 -329 -14 -394 -148 -38 -77
-44 -169 -17 -250 l20 -59 -39 -43 c-47 -51 -53 -97 -16 -131 37 -35 80 -29
132 19 l45 42 51 -17 c154 -49 325 15 393 146 39 78 46 170 18 253 l-21 60
210 211 c186 187 209 214 209 242 0 22 -9 41 -25 57 -16 16 -35 25 -57 25 -28
0 -55 -23 -244 -212z m-295 -356 c55 -27 76 -64 76 -132 0 -68 -21 -105 -76
-132 -70 -36 -169 -15 -213 45 -16 21 -21 44 -21 87 0 43 5 66 21 87 28 38 80
63 134 63 25 0 60 -8 79 -18z"/>
<path d="M1065 3095 c-16 -15 -25 -36 -25 -55 0 -19 9 -40 25 -55 l24 -25 635
0 c451 0 642 3 660 11 29 14 51 59 41 89 -4 11 -16 30 -28 40 -20 19 -38 20
-664 20 l-644 0 -24 -25z"/>
<path d="M585 2615 c-16 -15 -25 -36 -25 -55 0 -19 9 -40 25 -55 l24 -25 831
0 831 0 24 25 c33 32 33 78 0 110 l-24 25 -831 0 -831 0 -24 -25z"/>
<path d="M1065 2135 c-16 -15 -25 -36 -25 -55 0 -19 9 -40 25 -55 l24 -25 635
0 c451 0 642 3 660 11 29 14 51 59 41 89 -4 11 -16 30 -28 40 -20 19 -38 20
-664 20 l-644 0 -24 -25z"/>
<path d="M1545 1655 c-16 -15 -25 -36 -25 -55 0 -19 9 -40 25 -55 l24 -25 461
0 461 0 24 25 c16 15 25 36 25 55 0 19 -9 40 -25 55 l-24 25 -461 0 -461 0
-24 -25z"/>
</g>
</svg>
